# xmcd
#
# Track frame offsets:
#	150
#	15937
#	30309
#	45497
#	61434
#	75247
#	92034
#	105983
#	122071
#	138233
#	152745
#	167183
#
# Disc length: 2436 seconds
#
# Revision: 0
# Processed by: cddbd v1.5.2PL0 Copyright (c) Steve Scherf et al.
# Submitted via: audiograbber 1.83.01
#
DISCID=8009820c
DTITLE=SVEN MEISEZAHL - PARTYTIGER
DYEAR=2011
DGENRE=
TTITLE0=STELL DIE WELT AUF DEN KOPF
TTITLE1=PARTYTIGER
TTITLE2=DU KANNST WENN DU WILLST
TTITLE3=ADIO?S MARIA
TTITLE4=EIN CHIANTI IN FLAGRANTI
TTITLE5=EIN ROSENSTRAUSS SCHLIEßT HERZEN AUF
TTITLE6=OPTIMISTEN SO WIE WIR
TTITLE7=ICH BIN ALLES WAS DU BRAUCHST
TTITLE8=ES KOMMT IMMER ANDERS
TTITLE9=HEUT IST EIN FEIERTAG
TTITLE10=HEUT WOLLN WIR SCHUNKELN
TTITLE11=ICH WILL EINFACH NUR REDEN
EXTD=
EXTT0=
EXTT1=
EXTT2=
EXTT3=
EXTT4=
EXTT5=
EXTT6=
EXTT7=
EXTT8=
EXTT9=
EXTT10=
EXTT11=
PLAYORDER=
